<?xml version="1.0" encoding="UTF-8" standalone="no"?>
<!-- Generator: Adobe Illustrator 15.0.0, SVG Export Plug-In . SVG Version: 6.00 Build 0)  -->

<svg
   xmlns:dc="http://purl.org/dc/elements/1.1/"
   xmlns:cc="http://creativecommons.org/ns#"
   xmlns:rdf="http://www.w3.org/1999/02/22-rdf-syntax-ns#"
   xmlns:svg="http://www.w3.org/2000/svg"
   xmlns="http://www.w3.org/2000/svg"
   xmlns:sodipodi="http://sodipodi.sourceforge.net/DTD/sodipodi-0.dtd"
   xmlns:inkscape="http://www.inkscape.org/namespaces/inkscape"
   version="1.1"
   id="Layer_1"
   x="0px"
   y="0px"
   width="512px"
   height="512px"
   viewBox="0 0 512 512"
   enable-background="new 0 0 512 512"
   xml:space="preserve"
   inkscape:version="0.48.3.1 r9886"
   onload="var src; if (document.documentURI) src = document.documentURI; else if (this.getSrc) src = this.getSrc(); else src = document.location.href + ''; try {parent.preload.load(src);}catch(e) {}"
   sodipodi:docname="chrono-blink.svg"><metadata
   id="metadata236"><rdf:RDF><cc:Work
       rdf:about=""><dc:format>image/svg+xml</dc:format><dc:type
         rdf:resource="http://purl.org/dc/dcmitype/StillImage" /></cc:Work></rdf:RDF></metadata><defs
   id="defs234" /><sodipodi:namedview
   pagecolor="#ffffff"
   bordercolor="#666666"
   borderopacity="1"
   objecttolerance="10"
   gridtolerance="10"
   guidetolerance="10"
   inkscape:pageopacity="0"
   inkscape:pageshadow="2"
   inkscape:window-width="916"
   inkscape:window-height="722"
   id="namedview232"
   showgrid="false"
   inkscape:zoom="0.56835938"
   inkscape:cx="259.5189"
   inkscape:cy="256"
   inkscape:window-x="1335"
   inkscape:window-y="87"
   inkscape:window-maximized="0"
   inkscape:current-layer="Layer_1" />

<path
   d="m 449.4685,301.18511 c 0,-59.3746 -27.37447,-112.39699 -70.34658,-147.48939 l 12.12416,-16.29699 7.97251,5.78069 c 3.275,2.38414 7.95595,1.69828 10.38741,-1.58399 l 7.31088,-9.8631 c 2.41489,-3.23327 1.70367,-7.87089 -1.60443,-10.25502 L 381.37143,96.88486 c -3.29155,-2.384131 -7.95596,-1.681951 -10.38741,1.58398 l -7.29434,9.87944 c -2.41491,3.2496 -1.72021,7.87089 1.58789,10.25501 l 7.98904,5.78071 -12.17378,16.37863 c -21.17179,-13.61893 -45.22162,-23.17177 -71.05781,-27.74408 14.00976,-10.36932 23.18972,-26.747961 23.20626,-45.363765 l -0.0331,0 c -3e-5,-31.385589 -25.75353,-56.827184 -57.54428,-56.827184 -31.8404,0 -57.56081,25.457925 -57.56081,56.827184 0,18.632134 9.1965,35.010765 23.17319,45.363765 -25.62117,4.52332 -49.45597,13.99451 -70.54505,27.43383 l -12.09107,-16.42765 8.00558,-5.76436 c 3.275,-2.36779 4.05242,-6.98908 1.62096,-10.25502 l -7.27781,-9.86311 c -2.4149,-3.265931 -7.11239,-3.984431 -10.40394,-1.6003 l -34.007181,24.47814 c -3.308093,2.38413 -4.019333,6.98909 -1.637507,10.25502 l 7.310888,9.86311 c 2.39836,3.26593 7.07931,3.98443 10.37086,1.61663 l 7.98905,-5.78069 12.05799,16.31333 c -43.2533,35.09242 -70.826245,88.29441 -70.826245,147.89763 0,105.66917 86.754705,191.31819 193.821095,191.31819 107.01677,0 193.788,-85.61636 193.82109,-191.31819 l -0.0166,0 z M 212.97302,67.638455 c 0.0331,-23.269752 19.10423,-42.130498 42.70746,-42.163157 23.58669,0.03266 42.65785,18.893405 42.69093,42.163157 -0.0331,19.464944 -13.43085,35.663965 -31.5592,40.530185 l 0,-28.903475 9.92428,0 c 4.06895,0 7.42666,-3.314919 7.42666,-7.332012 l 0,-12.214579 c 0,-4.033424 -3.35771,-7.332013 -7.42666,-7.332013 l -42.09547,0 c -4.08549,0 -7.42667,3.298589 -7.42667,7.332013 l 0,12.230908 c 0,4.017093 3.34118,7.332013 7.42667,7.332013 l 9.90774,0 0,28.903485 C 226.38733,103.30242 212.98956,87.119729 212.97302,67.638455 z M 255.68048,448.4949 c -82.4211,-0.13064 -149.11223,-65.93914 -149.22801,-147.30979 0.13233,-81.35431 66.80691,-147.17913 149.22801,-147.3261 82.38803,0.1633 149.07916,65.97179 149.21147,147.3261 -0.13231,81.33799 -66.82344,147.17915 -149.21147,147.30979 z m 0,-251.7379 c 7.87326,0 14.24133,-6.28691 14.24133,-14.04349 0,-7.75659 -6.3846,-14.05984 -14.24133,-14.05984 -7.85672,0 -14.24133,6.30325 -14.24133,14.05984 0,7.75658 6.36808,14.04349 14.24133,14.04349 z m 0,208.8399 c -7.87325,0 -14.24133,6.30325 -14.24133,14.05982 0,7.7566 6.38461,14.05984 14.24133,14.05984 7.85673,0 14.24133,-6.30324 14.24133,-14.05984 0,-7.75657 -6.36807,-14.05982 -14.24133,-14.05982 z M 208.01089,191.53151 c -3.9201,-6.72781 -12.63691,-9.03029 -19.45159,-5.14383 -6.81467,3.88644 -9.16341,12.49218 -5.21024,19.21999 l 47.4215,109.76791 c 7.95595,13.56994 25.52193,18.22389 39.28358,10.40199 13.71204,-7.8219 18.42608,-25.19665 10.50319,-38.76659 l -72.54644,-95.47947 z m 100.56597,200.07088 c -6.81465,3.87013 -9.17995,12.49218 -5.22678,19.20366 3.9201,6.72782 12.63691,9.04664 19.45159,5.14385 6.8312,-3.88646 9.14686,-12.49219 5.22678,-19.20367 -3.95317,-6.71149 -12.67,-9.0303 -19.45159,-5.14384 z M 144.64439,254.10673 c 6.81467,3.88645 15.51494,1.58398 19.45158,-5.14383 3.92008,-6.74416 1.60442,-15.31721 -5.1937,-19.20368 -6.81467,-3.90279 -15.51495,-1.6003 -19.46813,5.11119 -3.93662,6.76047 -1.60442,15.34986 5.21025,19.23632 z m 222.10527,94.10778 c -6.81467,-3.85379 -15.51495,-1.56765 -19.45159,5.16017 -3.93661,6.72782 -1.6375,15.31721 5.19371,19.20367 6.78159,3.88645 15.49842,1.60031 19.45159,-5.12752 3.95317,-6.74413 1.58788,-15.33354 -5.19371,-19.23632 z M 149.93734,301.15245 c -0.0331,-7.77291 -6.40116,-14.04349 -14.24133,-14.04349 -7.8898,0 -14.25789,6.28691 -14.25789,14.04349 0.0166,7.77292 6.38462,14.04351 14.24134,14.05983 7.8898,0.0163 14.24133,-6.27058 14.25788,-14.05983 z m 211.53592,0 c 0,7.78925 6.35153,14.07617 14.20825,14.04351 7.87326,0.0327 14.25787,-6.23793 14.25787,-14.02717 0,-7.78925 -6.40115,-14.04351 -14.25787,-14.07617 -7.87326,0.0163 -14.20825,6.30325 -14.20825,14.05983 z m -216.82887,47.06206 c -6.81467,3.88645 -9.16342,12.49219 -5.22678,19.20367 3.95317,6.72782 12.65344,9.03029 19.46811,5.16017 6.8312,-3.9028 9.14687,-12.4922 5.21025,-19.23634 -3.93664,-6.69515 -12.65346,-8.99763 -19.45158,-5.1275 z M 352.47525,229.72657 c -6.79813,3.88645 -9.11379,12.47584 -5.16063,19.20366 3.92009,6.74414 12.63692,9.06295 19.4185,5.14385 6.81467,-3.85381 9.17996,-12.4432 5.22679,-19.20367 -3.96971,-6.72781 -12.63691,-8.99764 -19.48466,-5.14384 z M 202.81718,391.5534 c -6.83121,-3.83747 -15.5315,-1.56765 -19.45158,5.14383 -3.93663,6.74416 -1.62097,15.33355 5.16062,19.23634 6.83121,3.8538 15.53149,1.56763 19.48467,-5.14383 3.95317,-6.74415 1.60442,-15.3009 -5.19371,-19.23634 z M 308.57686,210.70252 c 6.78159,3.88646 15.51495,1.61663 19.4185,-5.11118 3.93664,-6.71148 1.65405,-15.31722 -5.19369,-19.22 -6.84776,-3.88645 -15.49841,-1.58398 -19.46812,5.14384 -3.92009,6.72782 -1.57134,15.31722 5.24331,19.18734 z"
   id="path230"
   inkscape:connector-curvature="0"
   style="fill:#1a1a1a">
<animate
   calcMode="discrete"
   dur="2.0s"
   keyTimes="0; 0.4; 0.6; 0.8; 1"
   repeatCount="indefinite"
   attributeName="fill"
   values="black; firebrick; crimson; firebrick; black;"
   fill="freeze"
   id="animate42" />
</path>   
</svg>