<?xml version="1.0" encoding="UTF-8" standalone="no"?>
<!-- Generator: Adobe Illustrator 15.0.0, SVG Export Plug-In . SVG Version: 6.00 Build 0)  -->

<svg
   xmlns:dc="http://purl.org/dc/elements/1.1/"
   xmlns:cc="http://creativecommons.org/ns#"
   xmlns:rdf="http://www.w3.org/1999/02/22-rdf-syntax-ns#"
   xmlns:svg="http://www.w3.org/2000/svg"
   xmlns="http://www.w3.org/2000/svg"
   xmlns:sodipodi="http://sodipodi.sourceforge.net/DTD/sodipodi-0.dtd"
   xmlns:inkscape="http://www.inkscape.org/namespaces/inkscape"
   version="1.1"
   id="Layer_1"
   x="0px"
   y="0px"
   width="512px"
   height="512px"
   viewBox="0 0 512 512"
   enable-background="new 0 0 512 512"
   xml:space="preserve"
   inkscape:version="0.48.3.1 r9886"
   onload="var src; if (document.documentURI) src = document.documentURI; else if (this.getSrc) src = this.getSrc(); else src = document.location.href + ''; try {parent.preload.load(src);}catch(e) {}"
   sodipodi:docname="fire2.svg"><metadata
   id="metadata1109"><rdf:RDF><cc:Work
       rdf:about=""><dc:format>image/svg+xml</dc:format><dc:type
         rdf:resource="http://purl.org/dc/dcmitype/StillImage" /></cc:Work></rdf:RDF></metadata><defs
   id="defs1107" /><sodipodi:namedview
   pagecolor="#ffffff"
   bordercolor="#666666"
   borderopacity="1"
   objecttolerance="10"
   gridtolerance="10"
   guidetolerance="10"
   inkscape:pageopacity="0"
   inkscape:pageshadow="2"
   inkscape:window-width="1079"
   inkscape:window-height="691"
   id="namedview1105"
   showgrid="false"
   inkscape:zoom="0.56835938"
   inkscape:cx="256"
   inkscape:cy="256"
   inkscape:window-x="54"
   inkscape:window-y="90"
   inkscape:window-maximized="0"
   inkscape:current-layer="Layer_1" />


<path
   d="m 396.46412,305.42472 c 0,-61.54342 -27.74721,-116.50259 -71.30446,-152.87684 l 12.28925,-16.89228 8.08106,5.99184 c 3.3196,2.47123 8.06429,1.76032 10.52885,-1.64184 l 7.41043,-10.22338 c 2.44778,-3.35137 1.72687,-8.1584 -1.62627,-10.62961 L 327.4398,93.661853 c -3.33636,-2.471217 -8.0643,-1.743392 -10.52884,1.641847 l -7.39367,10.2403 c -2.44779,3.3683 -1.74363,8.1584 1.60951,10.62961 l 8.09783,5.99186 -12.33955,16.9769 c -21.46007,-14.11639 -45.83738,-24.01818 -72.02537,-28.7575 14.20053,-10.74809 23.50548,-27.725005 23.52225,-47.020798 l -0.0335,0 c -3e-5,-32.532032 -26.1042,-58.9029495 -58.32785,-58.9029495 -32.27394,0 -58.34458,26.3878445 -58.34458,58.9029495 0,19.312719 9.32172,36.289628 23.48872,47.020798 -25.97004,4.68854 -50.12938,14.50569 -71.50562,28.43592 l -12.255714,-17.02771 8.11459,-5.97492 c 3.319604,-2.45428 4.107604,-7.24438 1.64304,-10.62961 l -7.37691,-10.22339 c -2.44779,-3.385222 -7.20924,-4.129972 -10.54561,-1.658756 L 38.768281,118.67868 c -3.353138,2.47121 -4.074062,7.24438 -1.659804,10.62961 l 7.410432,10.22338 c 2.431024,3.38523 7.175717,4.12998 10.512087,1.67569 l 8.09783,-5.99185 12.22218,16.90922 C 31.50874,188.49899 3.560347,243.64433 3.560347,305.42472 c 0,109.52902 87.936009,198.3066 196.460263,198.3066 108.47397,0 196.42674,-88.74373 196.46028,-198.3066 l -0.0168,0 z M 156.74839,63.347146 c 0.0335,-24.119743 19.36437,-43.669428 43.28899,-43.70328 23.90785,0.03385 43.2387,19.583537 43.27222,43.70328 -0.0335,20.175951 -13.61372,36.966684 -31.98892,42.010654 l 0,-29.959247 10.05941,0 c 4.12437,0 7.52779,-3.436006 7.52779,-7.599834 l 0,-12.660749 c 0,-4.180756 -3.40343,-7.599835 -7.52779,-7.599835 l -42.66865,0 c -4.14114,0 -7.52781,3.419079 -7.52781,7.599835 l 0,12.677675 c 0,4.163828 3.38667,7.599834 7.52781,7.599834 l 10.04264,0 0,29.959261 C 170.34535,100.31383 156.76515,83.540024 156.74839,63.347146 z M 200.03737,458.11539 C 116.49398,457.97998 48.894756,389.76765 48.777396,305.42472 c 0.13413,-84.326 67.716584,-152.55525 151.259984,-152.70758 83.50987,0.16926 151.1091,68.38158 151.24322,152.70758 -0.13412,84.30908 -67.73335,152.55526 -151.24322,152.69067 z m 0,-260.9333 c 7.98047,0 14.43526,-6.51656 14.43526,-14.55647 0,-8.03992 -6.47154,-14.57341 -14.43525,-14.57341 -7.96371,0 -14.43525,6.53349 -14.43525,14.57341 0,8.03991 6.45479,14.55647 14.43525,14.55647 z m 0,216.46834 c -7.98046,0 -14.43525,6.53349 -14.43525,14.57339 0,8.03993 6.47155,14.57342 14.43525,14.57342 7.96372,0 14.43526,-6.53349 14.43526,-14.57342 0,-8.0399 -6.45479,-14.57339 -14.43525,-14.57339 z m -48.31869,-221.8847 c -3.97347,-6.97357 -12.80898,-9.36015 -19.71645,-5.33173 -6.90746,4.02841 -9.28818,12.94849 -5.28118,19.92205 l 48.06721,113.77748 c 8.06429,14.06562 25.86945,18.88957 39.81849,10.78195 13.89875,-8.10761 18.67698,-26.11702 10.64621,-40.18264 l -73.53428,-98.96711 z m 101.93535,207.379 c -6.90745,4.0115 -9.30496,12.94849 -5.29796,19.90513 3.97348,6.97357 12.80899,9.37709 19.71646,5.33174 6.92421,-4.02842 9.27141,-12.9485 5.29795,-19.90513 -4.007,-6.95665 -12.84252,-9.36016 -19.71645,-5.33174 z M 87.489356,256.62667 c 6.907464,4.02842 15.726204,1.64184 19.716434,-5.33172 3.97346,-6.99051 1.62627,-15.87671 -5.26441,-19.90514 -6.90746,-4.04535 -15.726214,-1.65876 -19.733214,5.29788 -3.99023,7.00742 -1.62627,15.91056 5.28119,19.93898 z m 225.129574,97.54532 c -6.90746,-3.99456 -15.7262,-1.62491 -19.71645,5.34866 -3.99022,6.97357 -1.6598,15.87672 5.26443,19.90514 6.87393,4.02841 15.70945,1.65876 19.71645,-5.31482 4.007,-6.99048 1.60951,-15.89364 -5.26443,-19.93898 z M 92.85438,305.39087 c -0.0335,-8.05684 -6.488324,-14.55647 -14.435254,-14.55647 -7.99723,0 -14.45203,6.51656 -14.45203,14.55647 0.0168,8.05684 6.47156,14.55648 14.43526,14.5734 7.99723,0.0169 14.435254,-6.49963 14.452024,-14.5734 z m 214.41631,0 c 0,8.07377 6.43802,14.59033 14.40172,14.55648 7.98047,0.0339 14.45201,-6.46578 14.45201,-14.53955 0,-8.07377 -6.48831,-14.55648 -14.45201,-14.59034 -7.98047,0.0169 -14.40172,6.5335 -14.40172,14.57341 z M 87.489356,354.17199 c -6.90746,4.02842 -9.28819,12.9485 -5.29795,19.90514 4.007,6.97357 12.825744,9.36014 19.733204,5.34866 6.92422,-4.04536 9.27142,-12.94851 5.28119,-19.939 -3.99024,-6.93971 -12.82575,-9.32629 -19.716444,-5.3148 z M 298.15015,231.35596 c -6.89069,4.02842 -9.23788,12.93156 -5.2309,19.90513 3.97348,6.99049 12.80899,9.394 19.68291,5.33174 6.90747,-3.99458 9.30496,-12.89772 5.29796,-19.90514 -4.02376,-6.97356 -12.80898,-9.3263 -19.74997,-5.33173 z M 146.45426,399.09395 c -6.92422,-3.97764 -15.74298,-1.62491 -19.71645,5.33173 -3.99022,6.9905 -1.64304,15.89364 5.23089,19.93899 6.92423,3.99457 15.74298,1.6249 19.74998,-5.33172 4.007,-6.9905 1.62627,-15.8598 -5.26443,-19.939 z M 253.65403,211.63701 c 6.87392,4.02842 15.7262,1.67568 19.6829,-5.29788 3.99024,-6.95664 1.67658,-15.87672 -5.2644,-19.92206 -6.941,-4.02842 -15.70946,-1.64184 -19.73321,5.33173 -3.97348,6.97357 -1.59274,15.87672 5.31471,19.88821 z"
   id="path230"
   inkscape:connector-curvature="0"
   style="opacity:0.40265485;fill:#1a1a1a" />
   <path
   d="M 256.37438,517.27835 C 169.29274,456.05735 153.40373,406.9076 166.51176,327.7646 c 9.67689,-58.44 54.20915,-130.6183 57.24745,-188.9463 13.53531,30.726 16.90129,110.94385 18.41404,143.05185 43.04939,-65.793 70.09882,-196.0698 60.44597,-276.5917995 0,0 89.67466,107.9862495 97.03234,232.1242495 9.65284,-25.587 30.76624,-185.867607 21.1134,-212.205607 28.95773,26.339 189.2338,263.678897 -32.17479,419.943897 41.62725,-101.105 21.2958,-165.38954 -50.97989,-228.39554 4.82682,27.092 16.388,133.021 -15.58721,177.421 7.23984,-45.904 -16.1377,-129.79695 -16.1377,-129.79695 0,0 -28.80678,46.83335 -51.83059,88.81135 -21.02445,38.333 -25.03561,93.0936 2.3196,164.0976 z"
   id="path1103"
   style="opacity:1;fill:#ff0000"
   inkscape:connector-curvature="0"
   sodipodi:nodetypes="cccccccccccsc">
   <animate
   calcMode="discrete"
   dur="2.0s"
   keyTimes="0; 0.4; 0.6; 0.8; 1"
   repeatCount="indefinite"
   attributeName="fill"
   values="#FF0000; #FF6600; #FFBB00; #FF6600; #FF0000;"
   fill="freeze"
   id="animate43" /> 
   </path>
   </svg>