<?xml version="1.0" encoding="UTF-8" standalone="no"?>
<!-- Generator: Adobe Illustrator 15.0.0, SVG Export Plug-In . SVG Version: 6.00 Build 0)  -->

<svg
   xmlns:dc="http://purl.org/dc/elements/1.1/"
   xmlns:cc="http://creativecommons.org/ns#"
   xmlns:rdf="http://www.w3.org/1999/02/22-rdf-syntax-ns#"
   xmlns:svg="http://www.w3.org/2000/svg"
   xmlns="http://www.w3.org/2000/svg"
   xmlns:sodipodi="http://sodipodi.sourceforge.net/DTD/sodipodi-0.dtd"
   xmlns:inkscape="http://www.inkscape.org/namespaces/inkscape"
   version="1.1"
   id="Layer_1"
   x="0px"
   y="0px"
   width="512px"
   height="512px"
   viewBox="0 0 512 512"
   enable-background="new 0 0 512 512"
   xml:space="preserve"
   inkscape:version="0.48.3.1 r9886"
   onload="var src; if (document.documentURI) src = document.documentURI; else if (this.getSrc) src = this.getSrc(); else src = document.location.href + ''; try {parent.preload.load(src);}catch(e) {}"
   sodipodi:docname="firstaid.svg"><metadata
   id="metadata160"><rdf:RDF><cc:Work
       rdf:about=""><dc:format>image/svg+xml</dc:format><dc:type
         rdf:resource="http://purl.org/dc/dcmitype/StillImage" /><dc:title /></cc:Work></rdf:RDF></metadata><defs
   id="defs158" /><sodipodi:namedview
   pagecolor="#ffffff"
   bordercolor="#666666"
   borderopacity="1"
   objecttolerance="10"
   gridtolerance="10"
   guidetolerance="10"
   inkscape:pageopacity="0"
   inkscape:pageshadow="2"
   inkscape:window-width="1225"
   inkscape:window-height="858"
   id="namedview156"
   showgrid="false"
   inkscape:zoom="0.80378154"
   inkscape:cx="181.39866"
   inkscape:cy="239.25174"
   inkscape:window-x="53"
   inkscape:window-y="24"
   inkscape:window-maximized="0"
   inkscape:current-layer="Layer_1" />


<path
   style="fill:#1a1a1a;fill-opacity:1;stroke:none"
   d="M 63.96875 115.375 C 37.022793 115.375 15.3125 137.05404 15.3125 164 L 15.3125 437.3125 C 15.3125 464.25846 37.022793 485.96875 63.96875 485.96875 L 453.3125 485.96875 C 480.25846 485.96875 501.96875 464.25846 501.96875 437.3125 L 501.96875 164 C 501.96875 137.05404 480.25846 115.375 453.3125 115.375 L 63.96875 115.375 z M 224.5 166.34375 L 292.75 166.34375 L 292.75 257.09375 L 363.0625 257.09375 L 363.0625 344.78125 L 292.75 344.78125 L 292.75 435 L 224.5 435 L 224.5 344.78125 L 148.34375 344.78125 L 148.34375 257.09375 L 224.5 257.09375 L 224.5 166.34375 z "
   id="rect4243" /><path
   style="fill:#999999;fill-opacity:0;stroke:#666666;stroke-width:40.07217026;stroke-linecap:square;stroke-linejoin:round;stroke-miterlimit:4;stroke-opacity:1;stroke-dasharray:none"
   d="m 150.85681,122.14478 c 0,0 17.35733,-82.829342 105.9233,-82.829342 88.56598,0 105.9233,82.829342 105.9233,82.829342"
   id="path4793"
   inkscape:connector-curvature="0"
   sodipodi:nodetypes="czc" /></svg>