<?xml version="1.0" encoding="UTF-8" standalone="no"?>
<!-- Generator: Adobe Illustrator 15.0.0, SVG Export Plug-In . SVG Version: 6.00 Build 0)  -->

<svg
   xmlns:dc="http://purl.org/dc/elements/1.1/"
   xmlns:cc="http://creativecommons.org/ns#"
   xmlns:rdf="http://www.w3.org/1999/02/22-rdf-syntax-ns#"
   xmlns:svg="http://www.w3.org/2000/svg"
   xmlns="http://www.w3.org/2000/svg"
   xmlns:sodipodi="http://sodipodi.sourceforge.net/DTD/sodipodi-0.dtd"
   xmlns:inkscape="http://www.inkscape.org/namespaces/inkscape"
   sodipodi:docname="magnet.svg"
   onload="var src; if (document.documentURI) src = document.documentURI; else if (this.getSrc) src = this.getSrc(); else src = document.location.href + ''; try {parent.preload.load(src);}catch(e) {}"
   inkscape:version="0.48.3.1 r9886"
   xml:space="preserve"
   enable-background="new 0 0 512 512"
   viewBox="0 0 512 512"
   height="512px"
   width="512px"
   y="0px"
   x="0px"
   id="Layer_1"
   version="1.1"><sodipodi:namedview
   pagecolor="#ffffff"
   bordercolor="#666666"
   borderopacity="1"
   objecttolerance="10"
   gridtolerance="10"
   guidetolerance="10"
   inkscape:pageopacity="0"
   inkscape:pageshadow="2"
   inkscape:window-width="748"
   inkscape:window-height="648"
   id="namedview156"
   showgrid="false"
   inkscape:zoom="0.56835938"
   inkscape:cx="256"
   inkscape:cy="256"
   inkscape:window-x="321"
   inkscape:window-y="164"
   inkscape:window-maximized="0"
   inkscape:current-layer="Layer_1" /><metadata
   id="metadata160"><rdf:RDF><cc:Work
       rdf:about=""><dc:format>image/svg+xml</dc:format><dc:type
         rdf:resource="http://purl.org/dc/dcmitype/StillImage" /><dc:title /></cc:Work></rdf:RDF></metadata><defs
   id="defs158" />


<g
   id="g4935"
   transform="translate(-88.481642,-116.94137)"><path
     inkscape:connector-curvature="0"
     id="2"
     style="fill:#1e1e1e;fill-opacity:1;fill-rule:evenodd;stroke:#1e1e1e"
     d="m 287.72026,593.49211 20.06753,-45.62492 -5.53586,-73.58855 -21.45151,27.96365 z" /><path
     inkscape:connector-curvature="0"
     id="3"
     style="fill:#5c5c5c;fill-opacity:1;fill-rule:evenodd;stroke:none"
     d="m 280.80042,502.24229 21.45151,-27.96365 -103.10563,0 -47.7469,27.96365 z" /><path
     inkscape:connector-curvature="0"
     id="4"
     style="fill:#5c5c5c;fill-opacity:1;fill-rule:evenodd;stroke:none"
     d="m 199.1463,474.27864 z m -47.7469,27.96365 z" /><path
     inkscape:connector-curvature="0"
     id="8"
     style="fill:#1e1e1e;fill-opacity:1;fill-rule:evenodd;stroke:#1e1e1e"
     d="M 288.41224,593.49211 308.47977,547.86719 292.56415,326.36562 268.3447,317.53499 z" /><path
     inkscape:connector-curvature="0"
     id="9"
     style="fill:#1e1e1e;fill-opacity:1;fill-rule:evenodd;stroke:#1e1e1e"
     d="m 268.3447,317.53499 24.21945,8.83063 0.69198,-12.51005 -24.21944,-11.77417 z" /><path
     inkscape:connector-curvature="0"
     id="10"
     style="fill:#1e1e1e;fill-opacity:1;fill-rule:evenodd;stroke:#1e1e1e"
     d="m 269.03669,302.0814 24.21944,11.77417 2.76794,-10.3024 -23.52746,-14.71772 z" /><path
     inkscape:connector-curvature="0"
     id="11"
     style="fill:#1e1e1e;fill-opacity:1;fill-rule:evenodd;stroke:#1e1e1e"
     d="m 272.49661,288.83545 23.52746,14.71772 4.84389,-9.56652 -22.1435,-16.92536 z" /><path
     inkscape:connector-curvature="0"
     id="12"
     style="fill:#1e1e1e;fill-opacity:1;fill-rule:evenodd;stroke:#1e1e1e"
     d="m 278.72446,277.06129 22.1435,16.92536 6.91983,-7.35886 -20.75952,-19.13302 z" /><path
     inkscape:connector-curvature="0"
     id="13"
     style="fill:#1e1e1e;fill-opacity:1;fill-rule:evenodd;stroke:#1e1e1e"
     d="m 287.02827,267.49477 20.75952,19.13302 8.30381,-6.62296 -18.68356,-20.6048 z" /><path
     inkscape:connector-curvature="0"
     id="14"
     style="fill:#1e1e1e;fill-opacity:1;fill-rule:evenodd;stroke:#1e1e1e"
     d="m 297.40804,259.40003 18.68356,20.6048 7.61183,-5.1512 -16.60762,-21.34068 z" /><path
     inkscape:connector-curvature="0"
     id="15"
     style="fill:#1e1e1e;fill-opacity:1;fill-rule:evenodd;stroke:#1e1e1e"
     d="m 307.09581,253.51295 16.60762,21.34068 8.99579,-2.94354 -14.53167,-22.07657 z" /><path
     inkscape:connector-curvature="0"
     id="16"
     style="fill:#1e1e1e;fill-opacity:1;fill-rule:evenodd;stroke:#1e1e1e"
     d="m 318.16755,249.83352 14.53167,22.07657 8.30381,-0.73589 -11.76373,-22.81245 z" /><path
     inkscape:connector-curvature="0"
     id="17"
     style="fill:#1e1e1e;fill-opacity:1;fill-rule:evenodd;stroke:#1e1e1e"
     d="m 329.2393,248.36175 11.76373,22.81245 1.38397,0 -11.76373,-22.81245 z" /><path
     inkscape:connector-curvature="0"
     id="18"
     style="fill:#1e1e1e;fill-opacity:1;fill-rule:evenodd;stroke:#1e1e1e"
     d="m 330.62327,248.36175 11.76373,22.81245 0.69197,0 -11.76372,-22.81245 z" /><path
     inkscape:connector-curvature="0"
     id="19"
     style="fill:#1e1e1e;fill-opacity:1;fill-rule:evenodd;stroke:#1e1e1e"
     d="m 331.31525,248.36175 11.76372,22.81245 2.76794,0 -11.76372,-22.81245 z" /><path
     inkscape:connector-curvature="0"
     id="20"
     style="fill:#1e1e1e;fill-opacity:1;fill-rule:evenodd;stroke:#1e1e1e"
     d="m 334.08319,248.36175 11.76372,22.81245 2.76795,0.73589 -11.07175,-22.81246 z" /><path
     inkscape:connector-curvature="0"
     id="21"
     style="fill:#1e1e1e;fill-opacity:1;fill-rule:evenodd;stroke:#1e1e1e"
     d="m 337.54311,249.09763 11.07175,22.81246 7.61181,1.47177 -8.99578,-22.07657 z" /><path
     inkscape:connector-curvature="0"
     id="22"
     style="fill:#1e1e1e;fill-opacity:1;fill-rule:evenodd;stroke:#1e1e1e"
     d="m 347.23089,251.30529 8.99578,22.07657 8.30381,2.94355 -6.91984,-21.34069 z" /><path
     inkscape:connector-curvature="0"
     id="23"
     style="fill:#1e1e1e;fill-opacity:1;fill-rule:evenodd;stroke:#1e1e1e"
     d="m 357.61064,254.98472 6.91984,21.34069 7.61183,4.41531 -4.84389,-19.86892 z" /><path
     inkscape:connector-curvature="0"
     id="24"
     style="fill:#1e1e1e;fill-opacity:1;fill-rule:evenodd;stroke:#1e1e1e"
     d="m 367.29842,260.8718 4.84389,19.86892 7.61183,6.62296 -3.45992,-18.39714 z" /><path
     inkscape:connector-curvature="0"
     id="25"
     style="fill:#1e1e1e;fill-opacity:1;fill-rule:evenodd;stroke:#1e1e1e"
     d="m 376.29422,268.96654 3.45992,18.39714 5.53587,8.09475 -1.38397,-16.92537 z" /><path
     inkscape:connector-curvature="0"
     id="26"
     style="fill:#1e1e1e;fill-opacity:1;fill-rule:evenodd;stroke:#1e1e1e"
     d="m 383.90604,278.53306 1.38397,16.92537 4.84389,8.09474 -0.69198,-13.98183 z" /><path
     inkscape:connector-curvature="0"
     id="27"
     style="fill:#1e1e1e;fill-opacity:1;fill-rule:evenodd;stroke:#1e1e1e"
     d="m 389.44192,289.57134 0.69198,13.98183 2.07594,10.3024 0,-11.77417 z" /><path
     inkscape:connector-curvature="0"
     id="28"
     style="fill:#1e1e1e;fill-opacity:1;fill-rule:evenodd;stroke:#1e1e1e"
     d="m 392.20984,302.0814 0,11.77417 1.38397,11.77417 0,-8.83064 z" /><path
     inkscape:connector-curvature="0"
     id="30"
     style="fill:#3d3d3d;fill-opacity:1;fill-rule:evenodd;stroke:none"
     d="m 207.45011,547.86719 z m -45.67095,45.62492 z" /><path
     inkscape:connector-curvature="0"
     id="31"
     style="fill:#1e1e1e;fill-opacity:1;fill-rule:evenodd;stroke:#1e1e1e"
     d="m 287.72026,593.49211 20.06753,-45.62492 -5.53586,-73.58855 -21.45151,27.96365 z" /><path
     inkscape:connector-curvature="0"
     id="32"
     style="fill:#5c5c5c;fill-opacity:1;fill-rule:evenodd;stroke:none"
     d="m 280.80042,502.24229 21.45151,-27.96365 -103.10563,0 -47.7469,27.96365 z" /><path
     inkscape:connector-curvature="0"
     id="33"
     style="fill:#5c5c5c;fill-opacity:1;fill-rule:evenodd;stroke:none"
     d="m 199.1463,474.27864 z m -47.7469,27.96365 z" /><path
     inkscape:connector-curvature="0"
     id="37"
     style="fill:#1e1e1e;fill-opacity:1;fill-rule:evenodd;stroke:#1e1e1e"
     d="M 288.41224,593.49211 308.47977,547.86719 292.56415,326.36562 268.3447,317.53499 z" /><path
     inkscape:connector-curvature="0"
     id="38"
     style="fill:#1e1e1e;fill-opacity:1;fill-rule:evenodd;stroke:#1e1e1e"
     d="m 268.3447,317.53499 24.21945,8.83063 0.69198,-12.51005 -24.21944,-11.77417 z" /><path
     inkscape:connector-curvature="0"
     id="39"
     style="fill:#1e1e1e;fill-opacity:1;fill-rule:evenodd;stroke:#1e1e1e"
     d="m 269.03669,302.0814 24.21944,11.77417 2.76794,-10.3024 -23.52746,-14.71772 z" /><path
     inkscape:connector-curvature="0"
     id="40"
     style="fill:#1e1e1e;fill-opacity:1;fill-rule:evenodd;stroke:#1e1e1e"
     d="m 272.49661,288.83545 23.52746,14.71772 4.84389,-9.56652 -22.1435,-16.92536 z" /><path
     inkscape:connector-curvature="0"
     id="41"
     style="fill:#1e1e1e;fill-opacity:1;fill-rule:evenodd;stroke:#1e1e1e"
     d="m 278.72446,277.06129 22.1435,16.92536 6.91983,-7.35886 -20.75952,-19.13302 z" /><path
     inkscape:connector-curvature="0"
     id="42"
     style="fill:#1e1e1e;fill-opacity:1;fill-rule:evenodd;stroke:#1e1e1e"
     d="m 287.02827,267.49477 20.75952,19.13302 8.30381,-6.62296 -18.68356,-20.6048 z" /><path
     inkscape:connector-curvature="0"
     id="43"
     style="fill:#1e1e1e;fill-opacity:1;fill-rule:evenodd;stroke:#1e1e1e"
     d="m 297.40804,259.40003 18.68356,20.6048 7.61183,-5.1512 -16.60762,-21.34068 z" /><path
     inkscape:connector-curvature="0"
     id="44"
     style="fill:#1e1e1e;fill-opacity:1;fill-rule:evenodd;stroke:#1e1e1e"
     d="m 307.09581,253.51295 16.60762,21.34068 8.99579,-2.94354 -14.53167,-22.07657 z" /><path
     inkscape:connector-curvature="0"
     id="45"
     style="fill:#1e1e1e;fill-opacity:1;fill-rule:evenodd;stroke:#1e1e1e"
     d="m 318.16755,249.83352 14.53167,22.07657 8.30381,-0.73589 -11.76373,-22.81245 z" /><path
     inkscape:connector-curvature="0"
     id="46"
     style="fill:#1e1e1e;fill-opacity:1;fill-rule:evenodd;stroke:#1e1e1e"
     d="m 329.2393,248.36175 11.76373,22.81245 1.38397,0 -11.76373,-22.81245 z" /><path
     inkscape:connector-curvature="0"
     id="47"
     style="fill:#1e1e1e;fill-opacity:1;fill-rule:evenodd;stroke:#1e1e1e"
     d="m 330.62327,248.36175 11.76373,22.81245 0.69197,0 -11.76372,-22.81245 z" /><path
     inkscape:connector-curvature="0"
     id="48"
     style="fill:#1e1e1e;fill-opacity:1;fill-rule:evenodd;stroke:#1e1e1e"
     d="m 331.31525,248.36175 11.76372,22.81245 2.76794,0 -11.76372,-22.81245 z" /><path
     inkscape:connector-curvature="0"
     id="49"
     style="fill:#1e1e1e;fill-opacity:1;fill-rule:evenodd;stroke:#1e1e1e"
     d="m 334.08319,248.36175 11.76372,22.81245 2.76795,0.73589 -11.07175,-22.81246 z" /><path
     inkscape:connector-curvature="0"
     id="50"
     style="fill:#1e1e1e;fill-opacity:1;fill-rule:evenodd;stroke:#1e1e1e"
     d="m 337.54311,249.09763 11.07175,22.81246 7.61181,1.47177 -8.99578,-22.07657 z" /><path
     inkscape:connector-curvature="0"
     id="51"
     style="fill:#1e1e1e;fill-opacity:1;fill-rule:evenodd;stroke:#1e1e1e"
     d="m 347.23089,251.30529 8.99578,22.07657 8.30381,2.94355 -6.91984,-21.34069 z" /><path
     inkscape:connector-curvature="0"
     id="52"
     style="fill:#1e1e1e;fill-opacity:1;fill-rule:evenodd;stroke:#1e1e1e"
     d="m 357.61064,254.98472 6.91984,21.34069 7.61183,4.41531 -4.84389,-19.86892 z" /><path
     inkscape:connector-curvature="0"
     id="53"
     style="fill:#1e1e1e;fill-opacity:1;fill-rule:evenodd;stroke:#1e1e1e"
     d="m 367.29842,260.8718 4.84389,19.86892 7.61183,6.62296 -3.45992,-18.39714 z" /><path
     inkscape:connector-curvature="0"
     id="54"
     style="fill:#1e1e1e;fill-opacity:1;fill-rule:evenodd;stroke:#1e1e1e"
     d="m 376.29422,268.96654 3.45992,18.39714 5.53587,8.09475 -1.38397,-16.92537 z" /><path
     inkscape:connector-curvature="0"
     id="55"
     style="fill:#1e1e1e;fill-opacity:1;fill-rule:evenodd;stroke:#1e1e1e"
     d="m 383.90604,278.53306 1.38397,16.92537 4.84389,8.09474 -0.69198,-13.98183 z" /><path
     inkscape:connector-curvature="0"
     id="56"
     style="fill:#1e1e1e;fill-opacity:1;fill-rule:evenodd;stroke:#1e1e1e"
     d="m 389.44192,289.57134 0.69198,13.98183 2.07594,10.3024 0,-11.77417 z" /><path
     inkscape:connector-curvature="0"
     id="57"
     style="fill:#1e1e1e;fill-opacity:1;fill-rule:evenodd;stroke:#1e1e1e"
     d="m 392.20984,302.0814 0,11.77417 1.38397,11.77417 0,-8.83064 z" /><path
     inkscape:connector-curvature="0"
     id="59"
     style="fill:#3d3d3d;fill-opacity:1;fill-rule:evenodd;stroke:none"
     d="m 207.45011,547.86719 z m -45.67095,45.62492 z" /><path
     inkscape:connector-curvature="0"
     id="60"
     style="fill:#3d3d3d;fill-opacity:1;fill-rule:evenodd;stroke:none"
     d="m 161.77916,597.91039 126.63308,0 -20.06754,-275.95712 0.69199,-15.45359 3.45992,-13.24595 6.22785,-11.77416 8.30381,-9.56652 10.37977,-8.09474 9.68777,-5.88708 11.07174,-3.67943 11.07175,-1.47177 1.38397,0 0.69198,0 2.76794,0 3.45992,0.73588 9.68778,2.20766 10.37975,3.67943 9.68778,5.88708 8.9958,8.09474 7.61182,9.56652 5.53588,11.03828 2.76792,12.51006 1.38397,14.7177 -17.99158,276.69301 130.093,0 27.67937,-275.95712 -0.692,-21.34068 -2.76792,-19.8689 -4.15191,-18.39715 -6.22786,-16.92537 -7.61182,-16.18948 -8.9958,-14.71771 -11.07173,-13.24595 -12.45572,-11.77417 -14.53167,-10.30239 -15.22365,-9.56652 -16.60761,-7.35885 -18.68357,-6.62297 -19.37555,-4.41532 -20.06754,-3.67943 -22.1435,-2.20765 -22.83547,-0.73589 -22.83547,0.73589 -21.4515,2.20765 -20.75953,3.67943 -18.68357,5.1512 -17.2996,6.62297 -16.60762,7.35886 -14.53166,9.56651 -13.83968,11.03829 -11.76373,12.51005 -10.37976,13.24594 -8.99579,15.4536 -6.91985,16.92537 -6.22785,18.39714 -3.45992,19.13303 -2.76794,21.34068 -0.69198,22.81245 29.06333,267.12649 z" /><path
     inkscape:connector-curvature="0"
     sodipodi:nodetypes="ccccc"
     id="path4796"
     d="m 310.37541,550.36206 -21.84493,49.15639 -8.13596,-91.85788 23.92148,-37.20211 6.05941,79.9036"
     style="fill:#3d3d3d;fill-opacity:1;stroke:none" /><path
     inkscape:connector-curvature="0"
     id="path4933"
     d="m 152.018,507.66057 10.37976,91.24982 125.9411,0 -6.91984,-91.24982 -129.40102,0 z"
     style="fill:#5c5c5c;fill-opacity:1;fill-rule:evenodd;stroke:none" /><path
     inkscape:connector-curvature="0"
     sodipodi:nodetypes="ccccc"
     id="path4709"
     d="m 380.14074,507.66057 -6.83592,91.24982 131.39304,0.60806 10.21192,-91.85788 -134.76904,0 z"
     style="fill:#5c5c5c;fill-opacity:1;fill-rule:evenodd;stroke:none" /></g></svg>