<?xml version="1.0" encoding="UTF-8" standalone="no"?>
<!-- Generator: Adobe Illustrator 15.0.0, SVG Export Plug-In . SVG Version: 6.00 Build 0)  -->

<svg
   xmlns:dc="http://purl.org/dc/elements/1.1/"
   xmlns:cc="http://creativecommons.org/ns#"
   xmlns:rdf="http://www.w3.org/1999/02/22-rdf-syntax-ns#"
   xmlns:svg="http://www.w3.org/2000/svg"
   xmlns="http://www.w3.org/2000/svg"
   xmlns:sodipodi="http://sodipodi.sourceforge.net/DTD/sodipodi-0.dtd"
   xmlns:inkscape="http://www.inkscape.org/namespaces/inkscape"
   version="1.1"
   x="0px"
   y="0px"
   width="512px"
   height="512px"
   viewBox="0 0 512 512"
   enable-background="new 0 0 512 512"
   xml:space="preserve"
   id="svg1014"
   inkscape:version="0.48.3.1 r9886"
   onload="var src; if (document.documentURI) src = document.documentURI; else if (this.getSrc) src = this.getSrc(); else src = document.location.href + ''; try {parent.preload.load(src);}catch(e) {}"
   sodipodi:docname="panic.svg"><metadata
   id="metadata1098"><rdf:RDF><cc:Work
       rdf:about=""><dc:format>image/svg+xml</dc:format><dc:type
         rdf:resource="http://purl.org/dc/dcmitype/StillImage" /><dc:title /></cc:Work></rdf:RDF></metadata><defs
   id="defs1096" /><sodipodi:namedview
   pagecolor="#ffffff"
   bordercolor="#666666"
   borderopacity="1"
   objecttolerance="10"
   gridtolerance="10"
   guidetolerance="10"
   inkscape:pageopacity="0"
   inkscape:pageshadow="2"
   inkscape:window-width="873"
   inkscape:window-height="745"
   id="namedview1094"
   showgrid="false"
   inkscape:zoom="0.80378154"
   inkscape:cx="258.48824"
   inkscape:cy="256"
   inkscape:window-x="53"
   inkscape:window-y="24"
   inkscape:window-maximized="0"
   inkscape:current-layer="svg1014" />


<g
   id="Layer_2"
   transform="matrix(0.79995463,0,0,0.9673749,47.630195,5.4551842)">
	<g
   id="g1086">
		<path
   inkscape:connector-curvature="0"
   d="M 256,0 C 114.615,0 0,114.615 0,256 0,397.385 114.613,512 256,512 397.385,512 512,397.385 512,256 512,114.615 397.385,0 256,0 z m 0,480 C 132.288,480 32,379.712 32,256 32,132.288 132.288,32 256,32 379.712,32 480,132.288 480,256 480,379.712 379.712,480 256,480 z"
   id="path1088" />
		
		
	</g>
</g><path
   style="opacity:0.77433627;fill:#000000;fill-opacity:1;stroke:#000000;stroke-width:17.69595909;stroke-miterlimit:4;stroke-opacity:1"
   d="m 207.51817,103.87646 c -12.75643,-5.213283 -24.56892,20.78003 -33.06693,38.09932 -5.76837,11.75614 -6.97642,21.32882 -16.58374,32.02787 -109.039397,121.43022 110.6102,-6.56943 49.65067,-70.12719 z"
   id="path102"
   inkscape:connector-curvature="0"
   sodipodi:nodetypes="cssc" /><path
   style="opacity:0.77433627;fill:#000000;fill-opacity:1;stroke:#000000;stroke-width:37.92440796;stroke-miterlimit:4;stroke-opacity:1"
   d="m 280.1549,325.36199 c -15.65962,47.06706 -9.28172,90.93903 -24.12564,93.01529 -18.8014,2.62982 -9.53536,-47.88585 -27.6347,-90.96071 -16.62457,-39.56505 8.49646,-81.86126 27.6347,-81.86126 19.13826,0 37.79143,38.73232 24.12564,79.80668 z"
   id="path684"
   inkscape:connector-curvature="0"
   sodipodi:nodetypes="sssss" /><path
   sodipodi:nodetypes="cssc"
   inkscape:connector-curvature="0"
   id="path687"
   d="m 307.99243,103.87646 c 12.75643,-5.213284 24.56892,20.78003 33.06693,38.09932 5.76837,11.75614 6.97642,21.32882 16.58374,32.02787 109.0394,121.43022 -110.6102,-6.56943 -49.65067,-70.12719 z"
   style="opacity:0.77433627;fill:#000000;fill-opacity:1;stroke:#000000;stroke-width:17.69595909;stroke-miterlimit:4;stroke-opacity:1" /></svg>