<?xml version="1.0" encoding="UTF-8" standalone="no"?>
<!-- Generator: Adobe Illustrator 15.0.0, SVG Export Plug-In . SVG Version: 6.00 Build 0)  -->

<svg
   xmlns:dc="http://purl.org/dc/elements/1.1/"
   xmlns:cc="http://creativecommons.org/ns#"
   xmlns:rdf="http://www.w3.org/1999/02/22-rdf-syntax-ns#"
   xmlns:svg="http://www.w3.org/2000/svg"
   xmlns="http://www.w3.org/2000/svg"
   xmlns:xlink="http://www.w3.org/1999/xlink"
   xmlns:sodipodi="http://sodipodi.sourceforge.net/DTD/sodipodi-0.dtd"
   xmlns:inkscape="http://www.inkscape.org/namespaces/inkscape"
   version="1.1"
   id="Layer_1"
   x="0px"
   y="0px"
   width="512px"
   height="512px"
   viewBox="0 0 512 512"
   enable-background="new 0 0 512 512"
   xml:space="preserve"
   inkscape:version="0.48.3.1 r9886"
   onload="var src; if (document.documentURI) src = document.documentURI; else if (this.getSrc) src = this.getSrc(); else src = document.location.href + ''; try {parent.preload.load(src);}catch(e) {}"
   sodipodi:docname="snowflake.svg"><metadata
   id="metadata236"><rdf:RDF><cc:Work
       rdf:about=""><dc:format>image/svg+xml</dc:format><dc:type
         rdf:resource="http://purl.org/dc/dcmitype/StillImage" /><dc:title /></cc:Work></rdf:RDF></metadata><defs
   id="defs234"><filter
     id="filter3900"
     inkscape:collect="always"><feGaussianBlur
       id="feGaussianBlur3902"
       stdDeviation="1.0047847"
       inkscape:collect="always" /></filter><radialGradient
     gradientUnits="userSpaceOnUse"
     gradientTransform="matrix(-10.970377,0.80888121,-0.6542749,-8.8735429,426.25185,268.49979)"
     r="3.5964629"
     fy="29.501455"
     fx="34.178387"
     cy="29.501455"
     cx="34.178387"
     id="radialGradient3899"
     xlink:href="#linearGradient3889"
     inkscape:collect="always" /><radialGradient
     gradientUnits="userSpaceOnUse"
     gradientTransform="matrix(-1.2434421,0.09168298,-0.03749912,-0.50857838,89.891811,23.40717)"
     r="31.730111"
     fy="-13.079073"
     fx="46.952137"
     cy="-13.079073"
     cx="46.952137"
     id="radialGradient3897"
     xlink:href="#linearGradient3889"
     inkscape:collect="always" /><radialGradient
     gradientUnits="userSpaceOnUse"
     gradientTransform="matrix(-1.2434425,0.09167611,-0.03749909,-0.50857836,89.883697,23.297239)"
     r="31.730113"
     fy="-13.29586"
     fx="46.952133"
     cy="-13.295861"
     cx="46.952133"
     id="radialGradient3895"
     xlink:href="#linearGradient3889"
     inkscape:collect="always" /><linearGradient
     id="linearGradient3889"
     inkscape:collect="always"><stop
       id="stop3891"
       offset="0"
       style="stop-color:#d76cff;stop-opacity:1;" /><stop
       id="stop3893"
       offset="1"
       style="stop-color:#d76cff;stop-opacity:0;" /></linearGradient></defs><sodipodi:namedview
   pagecolor="#ffffff"
   bordercolor="#666666"
   borderopacity="1"
   objecttolerance="10"
   gridtolerance="10"
   guidetolerance="10"
   inkscape:pageopacity="0"
   inkscape:pageshadow="2"
   inkscape:window-width="1128"
   inkscape:window-height="722"
   id="namedview232"
   showgrid="false"
   inkscape:zoom="0.56835938"
   inkscape:cx="-14.955324"
   inkscape:cy="256"
   inkscape:window-x="53"
   inkscape:window-y="24"
   inkscape:window-maximized="0"
   inkscape:current-layer="Layer_1" />


<g
   inkscape:label="Layer 1"
   id="layer1"
   transform="matrix(7.9003435,0,0,7.9003436,-0.32989863,3.189007)"><path
     transform="matrix(0.90744022,0,0,0.90744022,2.9619128,2.9619134)"
     style="fill:#0e232e;fill-opacity:1;stroke:#cac5c2;stroke-width:0;stroke-linecap:round;stroke-miterlimit:4;stroke-opacity:1;stroke-dasharray:none;stroke-dashoffset:0;filter:url(#filter3900)"
     d="m 31.911441,2.0000018 c -0.503263,0 -0.911223,0.8799357 -0.911223,1.9786911 l 0,7.6103501 -6.729032,-2.8006088 c -2.17411,-0.2713276 -3.095637,-0.5666018 -2.523387,0.517504 l 9.252419,4.4748858 0,8.006088 -8.481384,4.444444 -8.165959,-4.109589 0.175233,-9.193302 c -0.198694,-0.243128 -0.349624,-0.365899 -0.490657,-0.395739 -0.4231,-0.08952 -0.684346,0.711275 -1.296741,2.039574 l -0.5958,6.453577 -7.5351139,-3.805175 C 3.5142816,16.671326 2.3730876,16.537726 2.1214563,16.916287 c -0.031469,0.0473 0.00336,0.09448 0,0.152209 -0.023552,0.404107 0.6185415,1.041366 1.5771168,1.522069 l 7.4650209,3.744292 -7.3248326,4.200914 C 2.575261,28.00358 3.2084249,27.893003 4.504655,28.027399 l 8.901948,-4.56621 7.324832,3.68341 -0.140188,0.06088 0,0.42618 0.21028,8.949773 -7.465019,3.744291 -9.0421352,-4.748861 c -1.3670342,0.111598 -0.6566382,0.692043 0.7009408,2.191785 l 6.1682804,3.652967 -7.570162,3.805177 c -1.0955132,0.549378 -1.7937008,1.295715 -1.5420699,1.674278 0.031436,0.04731 0.1193722,0.05991 0.1752355,0.09133 0.3911371,0.219772 1.3194822,0.08497 2.2780574,-0.395738 l 7.465021,-3.744292 0.525704,7.610349 c 0.831734,1.684333 1.040331,1.15138 1.822447,0.243532 l -0.07008,-8.980214 6.588844,-3.318112 0,0.21309 0.385517,0.182649 9.778125,4.718416 0,6.697108 -9.252417,4.444445 c -0.57225,1.084105 0.349273,0.819272 2.523386,0.547945 l 6.729031,-2.800608 0,7.579907 c 0,1.098756 0.407961,2.009133 0.911225,2.009133 0.0629,0 0.11599,-0.03456 0.175234,-0.06088 0.414693,-0.18433 0.735988,-0.986838 0.735988,-1.948249 l 0,-7.488584 7.850535,3.409439 c 2.095233,0.216519 1.670667,-0.205855 1.156553,-1.248099 l -9.007088,-4.414004 0,-6.392694 10.338874,-5.388128 0.07006,-0.03045 6.553797,3.287671 -0.07007,8.980214 c 0.782114,0.907847 0.955663,1.440801 1.787397,-0.243531 l 0.525705,-7.61035 7.500067,3.744292 c 1.095516,0.549378 2.166613,0.682975 2.418247,0.304414 0.251631,-0.378562 -0.411507,-1.124902 -1.507023,-1.674278 l -7.570166,-3.805186 6.133231,-3.652966 c 1.357585,-1.499747 2.138071,-2.049743 0.771036,-2.16134 l -9.112231,4.718417 -7.149595,-3.592085 -0.210282,-9.467275 0,-0.121766 7.324831,-3.68341 8.936996,4.56621 c 1.296227,-0.134397 1.894345,-0.02384 0.630845,-1.491628 l -7.324831,-4.200914 7.500067,-3.744292 c 1.095516,-0.549375 1.758655,-1.295714 1.507023,-1.674278 -0.25163,-0.378561 -1.322733,-0.244964 -2.418248,0.304415 l -7.605206,3.805175 -0.560752,-6.484018 c -0.612398,-1.328301 -0.873644,-2.129099 -1.29674,-2.039573 -0.141033,0.02984 -0.291963,0.15261 -0.490659,0.395738 l 0.175235,9.223743 -7.92063,3.987824 -8.936995,-4.292236 0,-8.066972 9.007088,-4.4444448 C 42.343872,8.2636926 42.768439,7.8717603 40.673205,8.088282 l -7.850534,3.409434 0,-7.5190231 c 0,-1.0987554 -0.407963,-1.9786911 -0.911224,-1.9786911 z m -0.03505,20.9132422 4.696304,2.252664 -4.556114,5.783867 -4.310787,-5.844749 4.170597,-2.191782 z m 5.57248,2.709284 4.275739,2.039575 0.10514,4.444444 c -0.186452,0.0089 -0.399783,0.02069 -0.665895,0.03045 -0.644016,0.02359 -1.512787,0.04332 -2.523386,0.06088 -1.595111,0.02771 -3.639512,0.0413 -5.642574,0.06088 l -0.07008,-0.06088 4.97668,-6.331808 -0.455611,-0.243534 z m -11.109911,0.182649 4.696303,6.362253 -0.10514,0.121765 c -4.361032,0.02387 -7.902733,0.0296 -8.65662,0.03044 l -0.105136,-4.322674 4.170599,-2.191781 z m 15.52584,7.671232 0.10514,4.018263 -3.714987,1.948253 -4.27574,-5.814308 c 1.641176,-0.01908 3.366736,-0.03779 4.696305,-0.06088 1.017016,-0.01767 1.893508,-0.03652 2.558434,-0.06088 0.249491,-0.0092 0.440669,-0.02266 0.630848,-0.03044 z m -12.021137,0.182649 -4.415924,5.631659 -3.049095,-1.461188 -0.10514,-4.14003 c 0.757971,-0.0022 3.861708,-0.01418 7.57016,-0.03044 z m 1.927588,0 c 0.12497,-8.54e-4 0.225541,9.38e-4 0.350471,0 l 4.801445,6.484017 -4.661257,2.435313 -5.467339,-2.61796 4.97668,-6.30137 z"
     id="path3898"
     inkscape:connector-curvature="0" /><path
     inkscape:connector-curvature="0"
     id="rect3809"
     d="m 31.919637,4.7767955 c -0.456679,0 -0.826881,0.798489 -0.826881,1.7955438 l 0,6.9059387 -6.106193,-2.541386 c -1.972874,-0.246213 -2.809105,-0.514157 -2.289822,0.469604 l 8.396015,4.060691 0,7.265046 -7.696347,4.033069 -7.410121,-3.729207 0.159015,-8.342373 C 15.964999,14.473096 15.82804,14.36169 15.70006,14.334613 c -0.383938,-0.08124 -0.621002,0.64544 -1.176714,1.85079 L 13.982692,22.041641 7.1450271,18.588672 C 6.1509132,18.090146 5.115348,17.968912 4.8870075,18.312433 c -0.028556,0.04292 0.00306,0.08576 0,0.138121 -0.021371,0.366703 0.5612895,0.944976 1.4311392,1.381186 l 6.7740603,3.39772 -6.6468476,3.812076 c -1.1465511,1.331953 -0.5719928,1.231606 0.6042586,1.353567 l 8.077986,-4.143564 6.646847,3.342475 -0.127213,0.05524 0,0.386733 0.190816,8.121382 -6.774058,3.397722 -8.2051965,-4.30931 c -1.240502,0.101275 -0.59586,0.627991 0.6360619,1.988917 l 5.5973456,3.314849 -6.8694694,3.452971 c -0.9941129,0.498527 -1.6276763,1.175784 -1.3993362,1.519307 0.028526,0.04293 0.1083233,0.05436 0.1590157,0.08287 0.3549334,0.19943 1.1973511,0.07711 2.0672009,-0.359107 l 6.774061,-3.397724 0.477044,6.905937 c 0.754748,1.528432 0.944036,1.04481 1.653763,0.220993 l -0.0636,-8.149008 5.978983,-3.010988 0,0.193366 0.349831,0.165742 8.873064,4.281682 0,6.077224 -8.396016,4.033069 c -0.519282,0.983759 0.316945,0.743439 2.289825,0.497228 l 6.106191,-2.541386 0,6.878314 c 0,0.997053 0.3702,1.823167 0.826884,1.823167 0.05708,0 0.105246,-0.03136 0.159011,-0.05524 0.376313,-0.167268 0.667869,-0.895496 0.667869,-1.767922 l 0,-6.795439 7.12389,3.09386 c 1.901296,0.196479 1.516032,-0.186799 1.049504,-1.132575 l -8.173394,-4.005443 0,-5.80099 9.38191,-4.889405 0.06358,-0.02763 5.947179,2.983364 -0.06359,8.149009 c 0.70972,0.823817 0.867208,1.307439 1.621956,-0.220993 l 0.477043,-6.905936 6.805866,3.397722 c 0.994115,0.498528 1.966072,0.619759 2.194414,0.276238 0.228338,-0.343523 -0.373421,-1.020782 -1.367532,-1.519307 l -6.869474,-3.45298 5.565541,-3.314848 c 1.231927,-1.360931 1.940168,-1.860021 0.699669,-1.961289 l -8.268805,4.281684 -6.487831,-3.259604 -0.190818,-8.590985 0,-0.110501 6.646846,-3.342473 8.109791,4.143558 c 1.176248,-0.121953 1.719004,-0.0216 0.572453,-1.353559 l -6.646844,-3.812073 6.805862,-3.397721 c 0.994115,-0.498528 1.595874,-1.175783 1.367534,-1.519309 -0.228341,-0.343521 -1.200304,-0.22229 -2.194415,0.276239 l -6.901271,3.452969 -0.508849,-5.883859 c -0.555716,-1.205355 -0.792781,-1.93203 -1.176715,-1.850791 -0.12798,0.02708 -0.264939,0.138484 -0.445245,0.359109 l 0.159016,8.369994 -7.187498,3.618713 -8.10979,-3.894951 0,-7.320291 8.173394,-4.033068 c 0.466539,-0.945765 0.851809,-1.30142 -1.049491,-1.104939 l -7.123891,3.093856 0,-6.8230628 c 0,-0.9970548 -0.370202,-1.7955438 -0.826882,-1.7955438 z m -0.03181,18.9775165 4.261615,2.044158 -4.134402,5.248514 -3.911783,-5.303756 3.78457,-1.988916 z m 5.056693,2.458514 3.879975,1.850792 0.09541,4.033068 c -0.169193,0.008 -0.362778,0.01877 -0.60426,0.02763 -0.584406,0.0214 -1.372761,0.03928 -2.289821,0.05524 -1.447469,0.02515 -3.302639,0.03749 -5.120298,0.05524 l -0.0636,-0.05524 4.516039,-5.745737 -0.41344,-0.220992 z m -10.08158,0.165744 4.26161,5.773362 -0.09541,0.110501 c -3.957376,0.02163 -7.171258,0.02687 -7.855365,0.02762 l -0.09541,-3.922567 3.784568,-1.988907 z m 14.088771,6.961183 0.09541,3.646335 -3.371129,1.767923 -3.879978,-5.276138 c 1.489268,-0.01731 3.055111,-0.03429 4.261618,-0.05524 0.922878,-0.01604 1.718246,-0.03313 2.321625,-0.05524 0.226397,-0.0083 0.399881,-0.02056 0.572456,-0.02762 z m -10.908464,0.165744 -4.007186,5.110394 -2.766875,-1.325942 -0.0954,-3.756828 c 0.687813,-0.0019 3.50427,-0.01286 6.869467,-0.02762 z m 1.749172,0 c 0.113402,-7.76e-4 0.204664,8.51e-4 0.318031,0 l 4.357022,5.883858 -4.229812,2.209896 -4.961281,-2.375638 4.51604,-5.718116 z"
     style="fill:#1a1a1a;fill-opacity:1;stroke:#1a1a1a;stroke-width:2.53153548000000010;stroke-linecap:round;stroke-miterlimit:4;stroke-opacity:1;stroke-dasharray:none;stroke-dashoffset:0" /><rect
     y="0"
     x="0"
     height="64"
     width="64"
     id="rect3904"
     style="fill:#ffffff;fill-opacity:0;stroke:#cac5c2;stroke-width:0;stroke-linecap:round;stroke-miterlimit:4;stroke-opacity:1;stroke-dasharray:none;stroke-dashoffset:0" /><path
     d="m 33.683997,32.887302 c 0,0.994062 -0.748286,1.799909 -1.671344,1.799909 -0.923057,0 -1.671343,-0.805847 -1.671343,-1.799909 0,-0.994061 0.748286,-1.799908 1.671343,-1.799908 0.923058,0 1.671344,0.805847 1.671344,1.799908 z"
     sodipodi:ry="1.7999082"
     sodipodi:rx="1.6713433"
     sodipodi:cy="32.887302"
     sodipodi:cx="32.012653"
     id="path3906"
     style="fill:#cccccc;fill-opacity:1;stroke:#cac5c2;stroke-width:0;stroke-linecap:round;stroke-miterlimit:4;stroke-opacity:1;stroke-dasharray:none;stroke-dashoffset:0"
     sodipodi:type="arc" /></g></svg>